*
%FSTAX26Y26*%
%MOIN*%
%ADD10C,0.007000*%
%ADD11C,0.060275*%
%ADD12C,0.041339*%
%ADD13C,0.104331X0.088583*%
%ADD14C,0.010000*%
%IPPOS*%
%LNp_cmp(gtl)*%
%LPD*%
G75*
G54D10*
X00334646Y00503937D02*
Y00468504D01*
Y00503937D02*
X00297244Y00541339D01*
X00253937Y005D02*
Y00466535D01*
Y005D02*
X00214567Y0053937D01*
X00094488Y00503937D02*
Y00462598D01*
Y00503937D02*
X00059055Y0053937D01*
X00177165Y00496063D02*
Y00470472D01*
Y00496063D02*
X00133858Y0053937D01*
G54D11*
X00098425Y0061811D03*
X00133858Y0053937D03*
X00255906Y0061811D03*
X00297244Y00541339D03*
X00334646Y00616142D03*
X0005315Y0053937D03*
X00177165Y0061811D03*
X00214567Y0053937D03*
G54D10*
X00334646Y00897638D02*
Y00862205D01*
Y00897638D02*
X00297244Y00935039D01*
X00253937Y00893701D02*
Y00860236D01*
Y00893701D02*
X00214567Y00933071D01*
X00094488Y00897638D02*
Y00856299D01*
Y00897638D02*
X00059055Y00933071D01*
X00177165Y00889764D02*
Y00864173D01*
Y00889764D02*
X00133858Y00933071D01*
G54D11*
X00098425Y01011811D03*
X00133858Y00933071D03*
X00255906Y01011811D03*
X00297244Y00935039D03*
X00334646Y01009843D03*
X0005315Y00933071D03*
X00177165Y01011811D03*
X00214567Y00933071D03*
G54D10*
X00334646Y01291339D02*
Y01255906D01*
Y01291339D02*
X00297244Y0132874D01*
X00253937Y01287402D02*
Y01253937D01*
Y01287402D02*
X00214567Y01326772D01*
X00094488Y01291339D02*
Y0125D01*
Y01291339D02*
X00059055Y01326772D01*
X00177165Y01283465D02*
Y01257874D01*
Y01283465D02*
X00133858Y01326772D01*
G54D11*
X00098425Y01405512D03*
X00133858Y01326772D03*
X00255906Y01405512D03*
X00297244Y0132874D03*
X00334646Y01403543D03*
X0005315Y01326772D03*
X00177165Y01405512D03*
X00214567Y01326772D03*
G54D10*
X00334646Y01685039D02*
Y01649606D01*
Y01685039D02*
X00297244Y01722441D01*
X00253937Y01681102D02*
Y01647638D01*
Y01681102D02*
X00214567Y01720472D01*
X00094488Y01685039D02*
Y01643701D01*
Y01685039D02*
X00059055Y01720472D01*
X00177165Y01677165D02*
Y01651575D01*
Y01677165D02*
X00133858Y01720472D01*
G54D11*
X00098425Y01799213D03*
X00133858Y01720472D03*
X00255906Y01799213D03*
X00297244Y01722441D03*
X00334646Y01797244D03*
X0005315Y01720472D03*
X00177165Y01799213D03*
X00214567Y01720472D03*
G54D10*
X00334646Y0207874D02*
Y02043307D01*
Y0207874D02*
X00297244Y02116142D01*
X00253937Y02074803D02*
Y02041339D01*
Y02074803D02*
X00214567Y02114173D01*
X00094488Y0207874D02*
Y02037402D01*
Y0207874D02*
X00059055Y02114173D01*
X00177165Y02070866D02*
Y02045276D01*
Y02070866D02*
X00133858Y02114173D01*
G54D11*
X00098425Y02192913D03*
X00133858Y02114173D03*
X00255906Y02192913D03*
X00297244Y02116142D03*
X00334646Y02190945D03*
X0005315Y02114173D03*
X00177165Y02192913D03*
X00214567Y02114173D03*
G54D10*
X00846457Y00503937D02*
Y00468504D01*
Y00503937D02*
X00809055Y00541339D01*
X00765748Y005D02*
Y00466535D01*
Y005D02*
X00726378Y0053937D01*
X00606299Y00503937D02*
Y00462598D01*
Y00503937D02*
X00570866Y0053937D01*
X00688976Y00496063D02*
Y00470472D01*
Y00496063D02*
X00645669Y0053937D01*
G54D11*
X00610236Y0061811D03*
X00645669Y0053937D03*
X00767717Y0061811D03*
X00809055Y00541339D03*
X00846457Y00616142D03*
X00564961Y0053937D03*
X00688976Y0061811D03*
X00726378Y0053937D03*
G54D10*
X00846457Y00897638D02*
Y00862205D01*
Y00897638D02*
X00809055Y00935039D01*
X00765748Y00893701D02*
Y00860236D01*
Y00893701D02*
X00726378Y00933071D01*
X00606299Y00897638D02*
Y00856299D01*
Y00897638D02*
X00570866Y00933071D01*
X00688976Y00889764D02*
Y00864173D01*
Y00889764D02*
X00645669Y00933071D01*
G54D11*
X00610236Y01011811D03*
X00645669Y00933071D03*
X00767717Y01011811D03*
X00809055Y00935039D03*
X00846457Y01009843D03*
X00564961Y00933071D03*
X00688976Y01011811D03*
X00726378Y00933071D03*
G54D10*
X00846457Y01291339D02*
Y01255906D01*
Y01291339D02*
X00809055Y0132874D01*
X00765748Y01287402D02*
Y01253937D01*
Y01287402D02*
X00726378Y01326772D01*
X00606299Y01291339D02*
Y0125D01*
Y01291339D02*
X00570866Y01326772D01*
X00688976Y01283465D02*
Y01257874D01*
Y01283465D02*
X00645669Y01326772D01*
G54D11*
X00610236Y01405512D03*
X00645669Y01326772D03*
X00767717Y01405512D03*
X00809055Y0132874D03*
X00846457Y01403543D03*
X00564961Y01326772D03*
X00688976Y01405512D03*
X00726378Y01326772D03*
G54D10*
X00846457Y01685039D02*
Y01649606D01*
Y01685039D02*
X00809055Y01722441D01*
X00765748Y01681102D02*
Y01647638D01*
Y01681102D02*
X00726378Y01720472D01*
X00606299Y01685039D02*
Y01643701D01*
Y01685039D02*
X00570866Y01720472D01*
X00688976Y01677165D02*
Y01651575D01*
Y01677165D02*
X00645669Y01720472D01*
G54D11*
X00610236Y01799213D03*
X00645669Y01720472D03*
X00767717Y01799213D03*
X00809055Y01722441D03*
X00846457Y01797244D03*
X00564961Y01720472D03*
X00688976Y01799213D03*
X00726378Y01720472D03*
G54D10*
X00846457Y0207874D02*
Y02043307D01*
Y0207874D02*
X00809055Y02116142D01*
X00765748Y02074803D02*
Y02041339D01*
Y02074803D02*
X00726378Y02114173D01*
X00606299Y0207874D02*
Y02037402D01*
Y0207874D02*
X00570866Y02114173D01*
X00688976Y02070866D02*
Y02045276D01*
Y02070866D02*
X00645669Y02114173D01*
G54D11*
X00610236Y02192913D03*
X00645669Y02114173D03*
X00767717Y02192913D03*
X00809055Y02116142D03*
X00846457Y02190945D03*
X00564961Y02114173D03*
X00688976Y02192913D03*
X00726378Y02114173D03*
G54D10*
X01358268Y00503937D02*
Y00468504D01*
Y00503937D02*
X01320866Y00541339D01*
X01277559Y005D02*
Y00466535D01*
Y005D02*
X01238189Y0053937D01*
X0111811Y00503937D02*
Y00462598D01*
Y00503937D02*
X01082677Y0053937D01*
X01200787Y00496063D02*
Y00470472D01*
Y00496063D02*
X0115748Y0053937D01*
G54D11*
X01122047Y0061811D03*
X0115748Y0053937D03*
X01279528Y0061811D03*
X01320866Y00541339D03*
X01358268Y00616142D03*
X01076772Y0053937D03*
X01200787Y0061811D03*
X01238189Y0053937D03*
G54D10*
X01358268Y00897638D02*
Y00862205D01*
Y00897638D02*
X01320866Y00935039D01*
X01277559Y00893701D02*
Y00860236D01*
Y00893701D02*
X01238189Y00933071D01*
X0111811Y00897638D02*
Y00856299D01*
Y00897638D02*
X01082677Y00933071D01*
X01200787Y00889764D02*
Y00864173D01*
Y00889764D02*
X0115748Y00933071D01*
G54D11*
X01122047Y01011811D03*
X0115748Y00933071D03*
X01279528Y01011811D03*
X01320866Y00935039D03*
X01358268Y01009843D03*
X01076772Y00933071D03*
X01200787Y01011811D03*
X01238189Y00933071D03*
G54D10*
X01358268Y01291339D02*
Y01255906D01*
Y01291339D02*
X01320866Y0132874D01*
X01277559Y01287402D02*
Y01253937D01*
Y01287402D02*
X01238189Y01326772D01*
X0111811Y01291339D02*
Y0125D01*
Y01291339D02*
X01082677Y01326772D01*
X01200787Y01283465D02*
Y01257874D01*
Y01283465D02*
X0115748Y01326772D01*
G54D11*
X01122047Y01405512D03*
X0115748Y01326772D03*
X01279528Y01405512D03*
X01320866Y0132874D03*
X01358268Y01403543D03*
X01076772Y01326772D03*
X01200787Y01405512D03*
X01238189Y01326772D03*
G54D10*
X01358268Y01685039D02*
Y01649606D01*
Y01685039D02*
X01320866Y01722441D01*
X01277559Y01681102D02*
Y01647638D01*
Y01681102D02*
X01238189Y01720472D01*
X0111811Y01685039D02*
Y01643701D01*
Y01685039D02*
X01082677Y01720472D01*
X01200787Y01677165D02*
Y01651575D01*
Y01677165D02*
X0115748Y01720472D01*
G54D11*
X01122047Y01799213D03*
X0115748Y01720472D03*
X01279528Y01799213D03*
X01320866Y01722441D03*
X01358268Y01797244D03*
X01076772Y01720472D03*
X01200787Y01799213D03*
X01238189Y01720472D03*
G54D10*
X01358268Y0207874D02*
Y02043307D01*
Y0207874D02*
X01320866Y02116142D01*
X01277559Y02074803D02*
Y02041339D01*
Y02074803D02*
X01238189Y02114173D01*
X0111811Y0207874D02*
Y02037402D01*
Y0207874D02*
X01082677Y02114173D01*
X01200787Y02070866D02*
Y02045276D01*
Y02070866D02*
X0115748Y02114173D01*
G54D11*
X01122047Y02192913D03*
X0115748Y02114173D03*
X01279528Y02192913D03*
X01320866Y02116142D03*
X01358268Y02190945D03*
X01076772Y02114173D03*
X01200787Y02192913D03*
X01238189Y02114173D03*
G54D10*
X01870079Y00503937D02*
Y00468504D01*
Y00503937D02*
X01832677Y00541339D01*
X0178937Y005D02*
Y00466535D01*
Y005D02*
X0175Y0053937D01*
X01629921Y00503937D02*
Y00462598D01*
Y00503937D02*
X01594488Y0053937D01*
X01712598Y00496063D02*
Y00470472D01*
Y00496063D02*
X01669291Y0053937D01*
G54D11*
X01633858Y0061811D03*
X01669291Y0053937D03*
X01791339Y0061811D03*
X01832677Y00541339D03*
X01870079Y00616142D03*
X01588583Y0053937D03*
X01712598Y0061811D03*
X0175Y0053937D03*
G54D10*
X01870079Y00897638D02*
Y00862205D01*
Y00897638D02*
X01832677Y00935039D01*
X0178937Y00893701D02*
Y00860236D01*
Y00893701D02*
X0175Y00933071D01*
X01629921Y00897638D02*
Y00856299D01*
Y00897638D02*
X01594488Y00933071D01*
X01712598Y00889764D02*
Y00864173D01*
Y00889764D02*
X01669291Y00933071D01*
G54D11*
X01633858Y01011811D03*
X01669291Y00933071D03*
X01791339Y01011811D03*
X01832677Y00935039D03*
X01870079Y01009843D03*
X01588583Y00933071D03*
X01712598Y01011811D03*
X0175Y00933071D03*
G54D10*
X01870079Y01291339D02*
Y01255906D01*
Y01291339D02*
X01832677Y0132874D01*
X0178937Y01287402D02*
Y01253937D01*
Y01287402D02*
X0175Y01326772D01*
X01629921Y01291339D02*
Y0125D01*
Y01291339D02*
X01594488Y01326772D01*
X01712598Y01283465D02*
Y01257874D01*
Y01283465D02*
X01669291Y01326772D01*
G54D11*
X01633858Y01405512D03*
X01669291Y01326772D03*
X01791339Y01405512D03*
X01832677Y0132874D03*
X01870079Y01403543D03*
X01588583Y01326772D03*
X01712598Y01405512D03*
X0175Y01326772D03*
G54D10*
X01870079Y01685039D02*
Y01649606D01*
Y01685039D02*
X01832677Y01722441D01*
X0178937Y01681102D02*
Y01647638D01*
Y01681102D02*
X0175Y01720472D01*
X01629921Y01685039D02*
Y01643701D01*
Y01685039D02*
X01594488Y01720472D01*
X01712598Y01677165D02*
Y01651575D01*
Y01677165D02*
X01669291Y01720472D01*
G54D11*
X01633858Y01799213D03*
X01669291Y01720472D03*
X01791339Y01799213D03*
X01832677Y01722441D03*
X01870079Y01797244D03*
X01588583Y01720472D03*
X01712598Y01799213D03*
X0175Y01720472D03*
G54D10*
X01870079Y0207874D02*
Y02043307D01*
Y0207874D02*
X01832677Y02116142D01*
X0178937Y02074803D02*
Y02041339D01*
Y02074803D02*
X0175Y02114173D01*
X01629921Y0207874D02*
Y02037402D01*
Y0207874D02*
X01594488Y02114173D01*
X01712598Y02070866D02*
Y02045276D01*
Y02070866D02*
X01669291Y02114173D01*
G54D11*
X01633858Y02192913D03*
X01669291Y02114173D03*
X01791339Y02192913D03*
X01832677Y02116142D03*
X01870079Y02190945D03*
X01588583Y02114173D03*
X01712598Y02192913D03*
X0175Y02114173D03*
G54D12*
X00393701Y00137795D03*
G54D13*
D03*
G54D12*
X01377953D03*
G54D13*
D03*
G54D12*
X00393701Y0238189D03*
G54D13*
D03*
G54D12*
X01574803D03*
G54D13*
D03*
G54D14*
X-01010749Y03114089D02*
Y03024685D01*
X-00951146D01*
X-00895848Y03084288D02*
X-00866047D01*
X-00851146Y03069387D01*
Y03024685D01*
X-00895848D01*
X-00910749Y03039586D01*
X-00895848Y03054486D01*
X-00851146D01*
X-00810749Y03084288D02*
Y03054486D01*
X-00795848Y03039586D01*
X-00751146D01*
Y03084288D02*
Y03024685D01*
X-00766047Y03009784D01*
X-00795848D01*
X-00666047Y03024685D02*
X-00695848D01*
X-00710749Y03039586D01*
Y03069387D01*
X-00695848Y03084288D01*
X-00666047D01*
X-00651146Y03069387D01*
X-00666047Y03054486D01*
X-00710749D01*
X-00610749Y03084288D02*
Y03024685D01*
Y03054486D02*
X-00580948Y03084288D01*
X-00566047Y03069387D01*
X-00480948Y03039586D03*
Y03099188D03*
X-00310749Y03024685D02*
Y03114089D01*
X-00266047D01*
X-00251146Y03099188D01*
Y03084288D01*
X-00266047Y03069387D01*
X-00310749D01*
X-00210749Y03024685D02*
X-00151146D01*
X-00110749D02*
X-00051146D01*
X00048854Y03039586D02*
X00033953Y03024685D01*
X00004152D01*
X-00010749Y03039586D01*
Y03099188D01*
X00004152Y03114089D01*
X00033953D01*
X00048854Y03099188D01*
X00089251Y03024685D02*
Y03114089D01*
X00119052Y03069387D01*
X00148854Y03114089D01*
Y03024685D01*
X00189251D02*
Y03114089D01*
X00233953D01*
X00248854Y03099188D01*
Y03084288D01*
X00233953Y03069387D01*
X00189251D01*
X00433953Y03024685D02*
X00404152Y03054486D01*
Y03084288D01*
X00433953Y03114089D01*
X00504152D02*
X00548854D01*
X00504152D02*
X00489251Y03099188D01*
Y03039586D01*
X00504152Y03024685D01*
X00548854D01*
Y03069387D01*
X00533953D01*
X00589251Y03114089D02*
X00648854D01*
X00619052D02*
Y03024685D01*
X00689251Y03114089D02*
Y03024685D01*
X00748854D01*
X00804152D02*
X00833953Y03054486D01*
Y03084288D01*
X00804152Y03114089D01*
G36*
X0007824Y00289591D02*
Y00472941D01*
X0011861D01*
Y00289591D01*
X0007824D01*
G37*
G36*
Y00683291D02*
Y00866641D01*
X0011861D01*
Y00683291D01*
X0007824D01*
G37*
G36*
Y01076992D02*
Y01260342D01*
X0011861D01*
Y01076992D01*
X0007824D01*
G37*
G36*
Y01470693D02*
Y01654043D01*
X0011861D01*
Y01470693D01*
X0007824D01*
G37*
G36*
Y01864394D02*
Y02047744D01*
X0011861D01*
Y01864394D01*
X0007824D01*
G37*
G36*
X0015698Y00289591D02*
Y00472941D01*
X0019735D01*
Y00289591D01*
X0015698D01*
G37*
G36*
Y00683291D02*
Y00866641D01*
X0019735D01*
Y00683291D01*
X0015698D01*
G37*
G36*
Y01076992D02*
Y01260342D01*
X0019735D01*
Y01076992D01*
X0015698D01*
G37*
G36*
Y01470693D02*
Y01654043D01*
X0019735D01*
Y01470693D01*
X0015698D01*
G37*
G36*
Y01864394D02*
Y02047744D01*
X0019735D01*
Y01864394D01*
X0015698D01*
G37*
G36*
X00235721Y00289591D02*
Y00472941D01*
X0027609D01*
Y00289591D01*
X00235721D01*
G37*
G36*
Y00683291D02*
Y00866641D01*
X0027609D01*
Y00683291D01*
X00235721D01*
G37*
G36*
Y01076992D02*
Y01260342D01*
X0027609D01*
Y01076992D01*
X00235721D01*
G37*
G36*
Y01470693D02*
Y01654043D01*
X0027609D01*
Y01470693D01*
X00235721D01*
G37*
G36*
Y01864394D02*
Y02047744D01*
X0027609D01*
Y01864394D01*
X00235721D01*
G37*
G36*
X00312492Y00289591D02*
Y00474909D01*
X00352862D01*
Y00289591D01*
X00312492D01*
G37*
G36*
Y00683291D02*
Y0086861D01*
X00352862D01*
Y00683291D01*
X00312492D01*
G37*
G36*
Y01076992D02*
Y01262311D01*
X00352862D01*
Y01076992D01*
X00312492D01*
G37*
G36*
Y01470693D02*
Y01656012D01*
X00352862D01*
Y01470693D01*
X00312492D01*
G37*
G36*
Y01864394D02*
Y02049712D01*
X00352862D01*
Y01864394D01*
X00312492D01*
G37*
G36*
X00590051Y00289591D02*
Y00472941D01*
X00630421D01*
Y00289591D01*
X00590051D01*
G37*
G36*
Y00683291D02*
Y00866641D01*
X00630421D01*
Y00683291D01*
X00590051D01*
G37*
G36*
Y01076992D02*
Y01260342D01*
X00630421D01*
Y01076992D01*
X00590051D01*
G37*
G36*
Y01470693D02*
Y01654043D01*
X00630421D01*
Y01470693D01*
X00590051D01*
G37*
G36*
Y01864394D02*
Y02047744D01*
X00630421D01*
Y01864394D01*
X00590051D01*
G37*
G36*
X00668791Y00289591D02*
Y00472941D01*
X00709161D01*
Y00289591D01*
X00668791D01*
G37*
G36*
Y00683291D02*
Y00866641D01*
X00709161D01*
Y00683291D01*
X00668791D01*
G37*
G36*
Y01076992D02*
Y01260342D01*
X00709161D01*
Y01076992D01*
X00668791D01*
G37*
G36*
Y01470693D02*
Y01654043D01*
X00709161D01*
Y01470693D01*
X00668791D01*
G37*
G36*
Y01864394D02*
Y02047744D01*
X00709161D01*
Y01864394D01*
X00668791D01*
G37*
G36*
X00747532Y00289591D02*
Y00472941D01*
X00787901D01*
Y00289591D01*
X00747532D01*
G37*
G36*
Y00683291D02*
Y00866641D01*
X00787901D01*
Y00683291D01*
X00747532D01*
G37*
G36*
Y01076992D02*
Y01260342D01*
X00787901D01*
Y01076992D01*
X00747532D01*
G37*
G36*
Y01470693D02*
Y01654043D01*
X00787901D01*
Y01470693D01*
X00747532D01*
G37*
G36*
Y01864394D02*
Y02047744D01*
X00787901D01*
Y01864394D01*
X00747532D01*
G37*
G36*
X00824303Y00289591D02*
Y00474909D01*
X00864673D01*
Y00289591D01*
X00824303D01*
G37*
G36*
Y00683291D02*
Y0086861D01*
X00864673D01*
Y00683291D01*
X00824303D01*
G37*
G36*
Y01076992D02*
Y01262311D01*
X00864673D01*
Y01076992D01*
X00824303D01*
G37*
G36*
Y01470693D02*
Y01656012D01*
X00864673D01*
Y01470693D01*
X00824303D01*
G37*
G36*
Y01864394D02*
Y02049712D01*
X00864673D01*
Y01864394D01*
X00824303D01*
G37*
G36*
X01101862Y00289591D02*
Y00472941D01*
X01142232D01*
Y00289591D01*
X01101862D01*
G37*
G36*
Y00683291D02*
Y00866641D01*
X01142232D01*
Y00683291D01*
X01101862D01*
G37*
G36*
Y01076992D02*
Y01260342D01*
X01142232D01*
Y01076992D01*
X01101862D01*
G37*
G36*
Y01470693D02*
Y01654043D01*
X01142232D01*
Y01470693D01*
X01101862D01*
G37*
G36*
Y01864394D02*
Y02047744D01*
X01142232D01*
Y01864394D01*
X01101862D01*
G37*
G36*
X01180602Y00289591D02*
Y00472941D01*
X01220972D01*
Y00289591D01*
X01180602D01*
G37*
G36*
Y00683291D02*
Y00866641D01*
X01220972D01*
Y00683291D01*
X01180602D01*
G37*
G36*
Y01076992D02*
Y01260342D01*
X01220972D01*
Y01076992D01*
X01180602D01*
G37*
G36*
Y01470693D02*
Y01654043D01*
X01220972D01*
Y01470693D01*
X01180602D01*
G37*
G36*
Y01864394D02*
Y02047744D01*
X01220972D01*
Y01864394D01*
X01180602D01*
G37*
G36*
X01259343Y00289591D02*
Y00472941D01*
X01299713D01*
Y00289591D01*
X01259343D01*
G37*
G36*
Y00683291D02*
Y00866641D01*
X01299713D01*
Y00683291D01*
X01259343D01*
G37*
G36*
Y01076992D02*
Y01260342D01*
X01299713D01*
Y01076992D01*
X01259343D01*
G37*
G36*
Y01470693D02*
Y01654043D01*
X01299713D01*
Y01470693D01*
X01259343D01*
G37*
G36*
Y01864394D02*
Y02047744D01*
X01299713D01*
Y01864394D01*
X01259343D01*
G37*
G36*
X01336114Y00289591D02*
Y00474909D01*
X01376484D01*
Y00289591D01*
X01336114D01*
G37*
G36*
Y00683291D02*
Y0086861D01*
X01376484D01*
Y00683291D01*
X01336114D01*
G37*
G36*
Y01076992D02*
Y01262311D01*
X01376484D01*
Y01076992D01*
X01336114D01*
G37*
G36*
Y01470693D02*
Y01656012D01*
X01376484D01*
Y01470693D01*
X01336114D01*
G37*
G36*
Y01864394D02*
Y02049712D01*
X01376484D01*
Y01864394D01*
X01336114D01*
G37*
G36*
X01613673Y00289591D02*
Y00472941D01*
X01654043D01*
Y00289591D01*
X01613673D01*
G37*
G36*
Y00683291D02*
Y00866641D01*
X01654043D01*
Y00683291D01*
X01613673D01*
G37*
G36*
Y01076992D02*
Y01260342D01*
X01654043D01*
Y01076992D01*
X01613673D01*
G37*
G36*
Y01470693D02*
Y01654043D01*
X01654043D01*
Y01470693D01*
X01613673D01*
G37*
G36*
Y01864394D02*
Y02047744D01*
X01654043D01*
Y01864394D01*
X01613673D01*
G37*
G36*
X01692413Y00289591D02*
Y00472941D01*
X01732783D01*
Y00289591D01*
X01692413D01*
G37*
G36*
Y00683291D02*
Y00866641D01*
X01732783D01*
Y00683291D01*
X01692413D01*
G37*
G36*
Y01076992D02*
Y01260342D01*
X01732783D01*
Y01076992D01*
X01692413D01*
G37*
G36*
Y01470693D02*
Y01654043D01*
X01732783D01*
Y01470693D01*
X01692413D01*
G37*
G36*
Y01864394D02*
Y02047744D01*
X01732783D01*
Y01864394D01*
X01692413D01*
G37*
G36*
X01771154Y00289591D02*
Y00472941D01*
X01811524D01*
Y00289591D01*
X01771154D01*
G37*
G36*
Y00683291D02*
Y00866641D01*
X01811524D01*
Y00683291D01*
X01771154D01*
G37*
G36*
Y01076992D02*
Y01260342D01*
X01811524D01*
Y01076992D01*
X01771154D01*
G37*
G36*
Y01470693D02*
Y01654043D01*
X01811524D01*
Y01470693D01*
X01771154D01*
G37*
G36*
Y01864394D02*
Y02047744D01*
X01811524D01*
Y01864394D01*
X01771154D01*
G37*
G36*
X01847925Y00289591D02*
Y00474909D01*
X01888295D01*
Y00289591D01*
X01847925D01*
G37*
G36*
Y00683291D02*
Y0086861D01*
X01888295D01*
Y00683291D01*
X01847925D01*
G37*
G36*
Y01076992D02*
Y01262311D01*
X01888295D01*
Y01076992D01*
X01847925D01*
G37*
G36*
Y01470693D02*
Y01656012D01*
X01888295D01*
Y01470693D01*
X01847925D01*
G37*
G36*
Y01864394D02*
Y02049712D01*
X01888295D01*
Y01864394D01*
X01847925D01*
G37*
M02*
