*
%FSTAX26Y26*%
%MOIN*%
%ADD10C,0.006000*%
%ADD11C,0.010000*%
%IPPOS*%
%LNp_pcs(gko)*%
%LPD*%
G75*
G54D10*
XY00472441D02*
X0003937D01*
Y00275591D01*
X00391732D01*
X00393701Y00277559D01*
Y00472441D01*
X00433071D01*
Y00669291D01*
XD01*
Y00472441D01*
Y00866142D02*
X0003937D01*
Y00669291D01*
X00391732D01*
X00393701Y0067126D01*
Y00866142D01*
X00433071D01*
Y01062992D01*
XD01*
Y00866142D01*
Y01259843D02*
X0003937D01*
Y01062992D01*
X00391732D01*
X00393701Y01064961D01*
Y01259843D01*
X00433071D01*
Y01456693D01*
XD01*
Y01259843D01*
Y01653543D02*
X0003937D01*
Y01456693D01*
X00391732D01*
X00393701Y01458661D01*
Y01653543D01*
X00433071D01*
Y01850394D01*
XD01*
Y01653543D01*
Y02047244D02*
X0003937D01*
Y01850394D01*
X00391732D01*
X00393701Y01852362D01*
Y02047244D01*
X00433071D01*
Y02244094D01*
XD01*
Y02047244D01*
X00511811Y00472441D02*
X00551181D01*
Y00275591D01*
X00903543D01*
X00905512Y00277559D01*
Y00472441D01*
X00944882D01*
Y00669291D01*
X00511811D01*
Y00472441D01*
Y00866142D02*
X00551181D01*
Y00669291D01*
X00903543D01*
X00905512Y0067126D01*
Y00866142D01*
X00944882D01*
Y01062992D01*
X00511811D01*
Y00866142D01*
Y01259843D02*
X00551181D01*
Y01062992D01*
X00903543D01*
X00905512Y01064961D01*
Y01259843D01*
X00944882D01*
Y01456693D01*
X00511811D01*
Y01259843D01*
Y01653543D02*
X00551181D01*
Y01456693D01*
X00903543D01*
X00905512Y01458661D01*
Y01653543D01*
X00944882D01*
Y01850394D01*
X00511811D01*
Y01653543D01*
Y02047244D02*
X00551181D01*
Y01850394D01*
X00903543D01*
X00905512Y01852362D01*
Y02047244D01*
X00944882D01*
Y02244094D01*
X00511811D01*
Y02047244D01*
X01023622Y00472441D02*
X01062992D01*
Y00275591D01*
X01415354D01*
X01417323Y00277559D01*
Y00472441D01*
X01456693D01*
Y00669291D01*
X01023622D01*
Y00472441D01*
Y00866142D02*
X01062992D01*
Y00669291D01*
X01415354D01*
X01417323Y0067126D01*
Y00866142D01*
X01456693D01*
Y01062992D01*
X01023622D01*
Y00866142D01*
Y01259843D02*
X01062992D01*
Y01062992D01*
X01415354D01*
X01417323Y01064961D01*
Y01259843D01*
X01456693D01*
Y01456693D01*
X01023622D01*
Y01259843D01*
Y01653543D02*
X01062992D01*
Y01456693D01*
X01415354D01*
X01417323Y01458661D01*
Y01653543D01*
X01456693D01*
Y01850394D01*
X01023622D01*
Y01653543D01*
Y02047244D02*
X01062992D01*
Y01850394D01*
X01415354D01*
X01417323Y01852362D01*
Y02047244D01*
X01456693D01*
Y02244094D01*
X01023622D01*
Y02047244D01*
X01535433Y00472441D02*
X01574803D01*
Y00275591D01*
X01927165D01*
X01929134Y00277559D01*
Y00472441D01*
X01968504D01*
Y00669291D01*
X01535433D01*
Y00472441D01*
Y00866142D02*
X01574803D01*
Y00669291D01*
X01927165D01*
X01929134Y0067126D01*
Y00866142D01*
X01968504D01*
Y01062992D01*
X01535433D01*
Y00866142D01*
Y01259843D02*
X01574803D01*
Y01062992D01*
X01927165D01*
X01929134Y01064961D01*
Y01259843D01*
X01968504D01*
Y01456693D01*
X01535433D01*
Y01259843D01*
Y01653543D02*
X01574803D01*
Y01456693D01*
X01927165D01*
X01929134Y01458661D01*
Y01653543D01*
X01968504D01*
Y01850394D01*
X01535433D01*
Y01653543D01*
Y02047244D02*
X01574803D01*
Y01850394D01*
X01927165D01*
X01929134Y01852362D01*
Y02047244D01*
X01968504D01*
Y02244094D01*
X01535433D01*
Y02047244D01*
X00019685YD02*
X01948819D01*
X01968504Y00019685D02*
Y00275591D01*
X01574803D01*
XD02*
Y00019685D01*
Y02244094D02*
X00433071D01*
X01968504D02*
Y025D01*
X01948819Y02519685D02*
X00019685D01*
XY025D02*
Y02244094D01*
X00433071D02*
Y02283465D01*
X00511811Y02244094D02*
Y02283465D01*
X00433071D02*
X00511811D01*
X00393701Y00277559D02*
Y0023622D01*
X00551181Y00275591D02*
Y0023622D01*
X00393701D02*
X00551181D01*
X00905512Y00277559D02*
Y0023622D01*
X01062992Y00275591D02*
Y0023622D01*
X00905512D02*
X01062992D01*
X01417323Y00277559D02*
Y0023622D01*
X01574803Y00275591D02*
Y0023622D01*
X01417323D02*
X01574803D01*
X00944882Y02244094D02*
Y02283465D01*
X01023622Y02244094D02*
Y02283465D01*
X00944882D02*
X01023622D01*
X01456693Y02244094D02*
Y02283465D01*
X01535433Y02244094D02*
Y02283465D01*
X01456693D02*
X01535433D01*
X00511811Y02244094D02*
X00944882D01*
X01023622D02*
X01456693D01*
X01535433D02*
X01968504D01*
X01417323Y00275591D02*
X01062992D01*
X00905512D02*
X00551181D01*
X00393701D02*
XD01*
X00019685Y02519685D02*
G03XY025IJ-00019685D01*
X01948819Y02519685D02*
G02X01968504Y025IJ-00019685D01*
Y00019685D02*
G02X01948819YI-00019685JD01*
XY00019685D02*
G03X00019685YI00019685JD01*
G54D11*
X-01010749Y03114089D02*
G01Y03024685D01*
X-00951146D01*
X-00895848Y03084288D02*
X-00866047D01*
X-00851146Y03069387D01*
Y03024685D01*
X-00895848D01*
X-00910749Y03039586D01*
X-00895848Y03054486D01*
X-00851146D01*
X-00810749Y03084288D02*
Y03054486D01*
X-00795848Y03039586D01*
X-00751146D01*
Y03084288D02*
Y03024685D01*
X-00766047Y03009784D01*
X-00795848D01*
X-00666047Y03024685D02*
X-00695848D01*
X-00710749Y03039586D01*
Y03069387D01*
X-00695848Y03084288D01*
X-00666047D01*
X-00651146Y03069387D01*
X-00666047Y03054486D01*
X-00710749D01*
X-00610749Y03084288D02*
Y03024685D01*
Y03054486D02*
X-00580948Y03084288D01*
X-00566047Y03069387D01*
X-00480948Y03039586D03*
Y03099188D03*
X-00310749Y03024685D02*
Y03114089D01*
X-00266047D01*
X-00251146Y03099188D01*
Y03084288D01*
X-00266047Y03069387D01*
X-00310749D01*
X-00210749Y03024685D02*
X-00151146D01*
X-00110749D02*
Y03114089D01*
X-00066047D01*
X-00051146Y03099188D01*
Y03084288D01*
X-00066047Y03069387D01*
X-00110749D01*
X00048854Y03039586D02*
X00033953Y03024685D01*
X00004152D01*
X-00010749Y03039586D01*
Y03099188D01*
X00004152Y03114089D01*
X00033953D01*
X00048854Y03099188D01*
X00089251Y03039586D02*
X00104152Y03024685D01*
X00133953D01*
X00148854Y03039586D01*
Y03054486D01*
X00133953Y03069387D01*
X00104152D01*
X00089251Y03084288D01*
Y03099188D01*
X00104152Y03114089D01*
X00133953D01*
X00148854Y03099188D01*
X00333953Y03024685D02*
X00304152Y03054486D01*
Y03084288D01*
X00333953Y03114089D01*
X00404152D02*
X00448854D01*
X00404152D02*
X00389251Y03099188D01*
Y03039586D01*
X00404152Y03024685D01*
X00448854D01*
Y03069387D01*
X00433953D01*
X00489251Y03114089D02*
Y03024685D01*
X00548854Y03114089D02*
X00489251Y03069387D01*
X00548854Y03024685D01*
X00589251Y03039586D02*
Y03099188D01*
X00604152Y03114089D01*
X00633953D01*
X00648854Y03099188D01*
Y03039586D01*
X00633953Y03024685D01*
X00604152D01*
X00589251Y03039586D01*
X00704152Y03024685D02*
X00733953Y03054486D01*
Y03084288D01*
X00704152Y03114089D01*
M02*
