*
%FSTAX26Y26*%
%MOIN*%
%ADD10C,0.007000*%
%ADD11C,0.060275*%
%ADD12C,0.041339*%
%ADD13C,0.104331X0.088583*%
%ADD14C,0.010000*%
%IPPOS*%
%LNp_sol(gbl)*%
%LPD*%
G75*
G54D10*
X00094488Y00620079D02*
Y00448819D01*
Y00620079D02*
X0009252Y00622047D01*
X00173228Y0046063D02*
X00179134Y00454724D01*
X00173228Y0046063D02*
Y0061811D01*
X00257874D02*
Y00462598D01*
Y0061811D02*
X00255906Y00620079D01*
X00336614D02*
Y00464567D01*
G54D11*
X00098425Y0061811D03*
X00133858Y0053937D03*
X00255906Y0061811D03*
X00297244Y00541339D03*
X00334646Y00616142D03*
X0005315Y0053937D03*
X00177165Y0061811D03*
X00214567Y0053937D03*
G54D10*
X00094488Y0101378D02*
Y0084252D01*
Y0101378D02*
X0009252Y01015748D01*
X00173228Y00854331D02*
X00179134Y00848425D01*
X00173228Y00854331D02*
Y01011811D01*
X00257874D02*
Y00856299D01*
Y01011811D02*
X00255906Y0101378D01*
X00336614D02*
Y00858268D01*
G54D11*
X00098425Y01011811D03*
X00133858Y00933071D03*
X00255906Y01011811D03*
X00297244Y00935039D03*
X00334646Y01009843D03*
X0005315Y00933071D03*
X00177165Y01011811D03*
X00214567Y00933071D03*
G54D10*
X00094488Y0140748D02*
Y0123622D01*
Y0140748D02*
X0009252Y01409449D01*
X00173228Y01248031D02*
X00179134Y01242126D01*
X00173228Y01248031D02*
Y01405512D01*
X00257874D02*
Y0125D01*
Y01405512D02*
X00255906Y0140748D01*
X00336614D02*
Y01251969D01*
G54D11*
X00098425Y01405512D03*
X00133858Y01326772D03*
X00255906Y01405512D03*
X00297244Y0132874D03*
X00334646Y01403543D03*
X0005315Y01326772D03*
X00177165Y01405512D03*
X00214567Y01326772D03*
G54D10*
X00094488Y01801181D02*
Y01629921D01*
Y01801181D02*
X0009252Y0180315D01*
X00173228Y01641732D02*
X00179134Y01635827D01*
X00173228Y01641732D02*
Y01799213D01*
X00257874D02*
Y01643701D01*
Y01799213D02*
X00255906Y01801181D01*
X00336614D02*
Y01645669D01*
G54D11*
X00098425Y01799213D03*
X00133858Y01720472D03*
X00255906Y01799213D03*
X00297244Y01722441D03*
X00334646Y01797244D03*
X0005315Y01720472D03*
X00177165Y01799213D03*
X00214567Y01720472D03*
G54D10*
X00094488Y02194882D02*
Y02023622D01*
Y02194882D02*
X0009252Y0219685D01*
X00173228Y02035433D02*
X00179134Y02029528D01*
X00173228Y02035433D02*
Y02192913D01*
X00257874D02*
Y02037402D01*
Y02192913D02*
X00255906Y02194882D01*
X00336614D02*
Y0203937D01*
G54D11*
X00098425Y02192913D03*
X00133858Y02114173D03*
X00255906Y02192913D03*
X00297244Y02116142D03*
X00334646Y02190945D03*
X0005315Y02114173D03*
X00177165Y02192913D03*
X00214567Y02114173D03*
G54D10*
X00606299Y00620079D02*
Y00448819D01*
Y00620079D02*
X00604331Y00622047D01*
X00685039Y0046063D02*
X00690945Y00454724D01*
X00685039Y0046063D02*
Y0061811D01*
X00769685D02*
Y00462598D01*
Y0061811D02*
X00767717Y00620079D01*
X00848425D02*
Y00464567D01*
G54D11*
X00610236Y0061811D03*
X00645669Y0053937D03*
X00767717Y0061811D03*
X00809055Y00541339D03*
X00846457Y00616142D03*
X00564961Y0053937D03*
X00688976Y0061811D03*
X00726378Y0053937D03*
G54D10*
X00606299Y0101378D02*
Y0084252D01*
Y0101378D02*
X00604331Y01015748D01*
X00685039Y00854331D02*
X00690945Y00848425D01*
X00685039Y00854331D02*
Y01011811D01*
X00769685D02*
Y00856299D01*
Y01011811D02*
X00767717Y0101378D01*
X00848425D02*
Y00858268D01*
G54D11*
X00610236Y01011811D03*
X00645669Y00933071D03*
X00767717Y01011811D03*
X00809055Y00935039D03*
X00846457Y01009843D03*
X00564961Y00933071D03*
X00688976Y01011811D03*
X00726378Y00933071D03*
G54D10*
X00606299Y0140748D02*
Y0123622D01*
Y0140748D02*
X00604331Y01409449D01*
X00685039Y01248031D02*
X00690945Y01242126D01*
X00685039Y01248031D02*
Y01405512D01*
X00769685D02*
Y0125D01*
Y01405512D02*
X00767717Y0140748D01*
X00848425D02*
Y01251969D01*
G54D11*
X00610236Y01405512D03*
X00645669Y01326772D03*
X00767717Y01405512D03*
X00809055Y0132874D03*
X00846457Y01403543D03*
X00564961Y01326772D03*
X00688976Y01405512D03*
X00726378Y01326772D03*
G54D10*
X00606299Y01801181D02*
Y01629921D01*
Y01801181D02*
X00604331Y0180315D01*
X00685039Y01641732D02*
X00690945Y01635827D01*
X00685039Y01641732D02*
Y01799213D01*
X00769685D02*
Y01643701D01*
Y01799213D02*
X00767717Y01801181D01*
X00848425D02*
Y01645669D01*
G54D11*
X00610236Y01799213D03*
X00645669Y01720472D03*
X00767717Y01799213D03*
X00809055Y01722441D03*
X00846457Y01797244D03*
X00564961Y01720472D03*
X00688976Y01799213D03*
X00726378Y01720472D03*
G54D10*
X00606299Y02194882D02*
Y02023622D01*
Y02194882D02*
X00604331Y0219685D01*
X00685039Y02035433D02*
X00690945Y02029528D01*
X00685039Y02035433D02*
Y02192913D01*
X00769685D02*
Y02037402D01*
Y02192913D02*
X00767717Y02194882D01*
X00848425D02*
Y0203937D01*
G54D11*
X00610236Y02192913D03*
X00645669Y02114173D03*
X00767717Y02192913D03*
X00809055Y02116142D03*
X00846457Y02190945D03*
X00564961Y02114173D03*
X00688976Y02192913D03*
X00726378Y02114173D03*
G54D10*
X0111811Y00620079D02*
Y00448819D01*
Y00620079D02*
X01116142Y00622047D01*
X0119685Y0046063D02*
X01202756Y00454724D01*
X0119685Y0046063D02*
Y0061811D01*
X01281496D02*
Y00462598D01*
Y0061811D02*
X01279528Y00620079D01*
X01360236D02*
Y00464567D01*
G54D11*
X01122047Y0061811D03*
X0115748Y0053937D03*
X01279528Y0061811D03*
X01320866Y00541339D03*
X01358268Y00616142D03*
X01076772Y0053937D03*
X01200787Y0061811D03*
X01238189Y0053937D03*
G54D10*
X0111811Y0101378D02*
Y0084252D01*
Y0101378D02*
X01116142Y01015748D01*
X0119685Y00854331D02*
X01202756Y00848425D01*
X0119685Y00854331D02*
Y01011811D01*
X01281496D02*
Y00856299D01*
Y01011811D02*
X01279528Y0101378D01*
X01360236D02*
Y00858268D01*
G54D11*
X01122047Y01011811D03*
X0115748Y00933071D03*
X01279528Y01011811D03*
X01320866Y00935039D03*
X01358268Y01009843D03*
X01076772Y00933071D03*
X01200787Y01011811D03*
X01238189Y00933071D03*
G54D10*
X0111811Y0140748D02*
Y0123622D01*
Y0140748D02*
X01116142Y01409449D01*
X0119685Y01248031D02*
X01202756Y01242126D01*
X0119685Y01248031D02*
Y01405512D01*
X01281496D02*
Y0125D01*
Y01405512D02*
X01279528Y0140748D01*
X01360236D02*
Y01251969D01*
G54D11*
X01122047Y01405512D03*
X0115748Y01326772D03*
X01279528Y01405512D03*
X01320866Y0132874D03*
X01358268Y01403543D03*
X01076772Y01326772D03*
X01200787Y01405512D03*
X01238189Y01326772D03*
G54D10*
X0111811Y01801181D02*
Y01629921D01*
Y01801181D02*
X01116142Y0180315D01*
X0119685Y01641732D02*
X01202756Y01635827D01*
X0119685Y01641732D02*
Y01799213D01*
X01281496D02*
Y01643701D01*
Y01799213D02*
X01279528Y01801181D01*
X01360236D02*
Y01645669D01*
G54D11*
X01122047Y01799213D03*
X0115748Y01720472D03*
X01279528Y01799213D03*
X01320866Y01722441D03*
X01358268Y01797244D03*
X01076772Y01720472D03*
X01200787Y01799213D03*
X01238189Y01720472D03*
G54D10*
X0111811Y02194882D02*
Y02023622D01*
Y02194882D02*
X01116142Y0219685D01*
X0119685Y02035433D02*
X01202756Y02029528D01*
X0119685Y02035433D02*
Y02192913D01*
X01281496D02*
Y02037402D01*
Y02192913D02*
X01279528Y02194882D01*
X01360236D02*
Y0203937D01*
G54D11*
X01122047Y02192913D03*
X0115748Y02114173D03*
X01279528Y02192913D03*
X01320866Y02116142D03*
X01358268Y02190945D03*
X01076772Y02114173D03*
X01200787Y02192913D03*
X01238189Y02114173D03*
G54D10*
X01629921Y00620079D02*
Y00448819D01*
Y00620079D02*
X01627953Y00622047D01*
X01708661Y0046063D02*
X01714567Y00454724D01*
X01708661Y0046063D02*
Y0061811D01*
X01793307D02*
Y00462598D01*
Y0061811D02*
X01791339Y00620079D01*
X01872047D02*
Y00464567D01*
G54D11*
X01633858Y0061811D03*
X01669291Y0053937D03*
X01791339Y0061811D03*
X01832677Y00541339D03*
X01870079Y00616142D03*
X01588583Y0053937D03*
X01712598Y0061811D03*
X0175Y0053937D03*
G54D10*
X01629921Y0101378D02*
Y0084252D01*
Y0101378D02*
X01627953Y01015748D01*
X01708661Y00854331D02*
X01714567Y00848425D01*
X01708661Y00854331D02*
Y01011811D01*
X01793307D02*
Y00856299D01*
Y01011811D02*
X01791339Y0101378D01*
X01872047D02*
Y00858268D01*
G54D11*
X01633858Y01011811D03*
X01669291Y00933071D03*
X01791339Y01011811D03*
X01832677Y00935039D03*
X01870079Y01009843D03*
X01588583Y00933071D03*
X01712598Y01011811D03*
X0175Y00933071D03*
G54D10*
X01629921Y0140748D02*
Y0123622D01*
Y0140748D02*
X01627953Y01409449D01*
X01708661Y01248031D02*
X01714567Y01242126D01*
X01708661Y01248031D02*
Y01405512D01*
X01793307D02*
Y0125D01*
Y01405512D02*
X01791339Y0140748D01*
X01872047D02*
Y01251969D01*
G54D11*
X01633858Y01405512D03*
X01669291Y01326772D03*
X01791339Y01405512D03*
X01832677Y0132874D03*
X01870079Y01403543D03*
X01588583Y01326772D03*
X01712598Y01405512D03*
X0175Y01326772D03*
G54D10*
X01629921Y01801181D02*
Y01629921D01*
Y01801181D02*
X01627953Y0180315D01*
X01708661Y01641732D02*
X01714567Y01635827D01*
X01708661Y01641732D02*
Y01799213D01*
X01793307D02*
Y01643701D01*
Y01799213D02*
X01791339Y01801181D01*
X01872047D02*
Y01645669D01*
G54D11*
X01633858Y01799213D03*
X01669291Y01720472D03*
X01791339Y01799213D03*
X01832677Y01722441D03*
X01870079Y01797244D03*
X01588583Y01720472D03*
X01712598Y01799213D03*
X0175Y01720472D03*
G54D10*
X01629921Y02194882D02*
Y02023622D01*
Y02194882D02*
X01627953Y0219685D01*
X01708661Y02035433D02*
X01714567Y02029528D01*
X01708661Y02035433D02*
Y02192913D01*
X01793307D02*
Y02037402D01*
Y02192913D02*
X01791339Y02194882D01*
X01872047D02*
Y0203937D01*
G54D11*
X01633858Y02192913D03*
X01669291Y02114173D03*
X01791339Y02192913D03*
X01832677Y02116142D03*
X01870079Y02190945D03*
X01588583Y02114173D03*
X01712598Y02192913D03*
X0175Y02114173D03*
G54D12*
X00393701Y00137795D03*
G54D13*
D03*
G54D12*
X01377953D03*
G54D13*
D03*
G54D12*
X00393701Y0238189D03*
G54D13*
D03*
G54D12*
X01574803D03*
G54D13*
D03*
G54D14*
X-01010749Y03114089D02*
Y03024685D01*
X-00951146D01*
X-00895848Y03084288D02*
X-00866047D01*
X-00851146Y03069387D01*
Y03024685D01*
X-00895848D01*
X-00910749Y03039586D01*
X-00895848Y03054486D01*
X-00851146D01*
X-00810749Y03084288D02*
Y03054486D01*
X-00795848Y03039586D01*
X-00751146D01*
Y03084288D02*
Y03024685D01*
X-00766047Y03009784D01*
X-00795848D01*
X-00666047Y03024685D02*
X-00695848D01*
X-00710749Y03039586D01*
Y03069387D01*
X-00695848Y03084288D01*
X-00666047D01*
X-00651146Y03069387D01*
X-00666047Y03054486D01*
X-00710749D01*
X-00610749Y03084288D02*
Y03024685D01*
Y03054486D02*
X-00580948Y03084288D01*
X-00566047Y03069387D01*
X-00480948Y03039586D03*
Y03099188D03*
X-00310749Y03024685D02*
Y03114089D01*
X-00266047D01*
X-00251146Y03099188D01*
Y03084288D01*
X-00266047Y03069387D01*
X-00310749D01*
X-00210749Y03024685D02*
X-00151146D01*
X-00110749D02*
X-00051146D01*
X-00010749Y03039586D02*
X00004152Y03024685D01*
X00033953D01*
X00048854Y03039586D01*
Y03054486D01*
X00033953Y03069387D01*
X00004152D01*
X-00010749Y03084288D01*
Y03099188D01*
X00004152Y03114089D01*
X00033953D01*
X00048854Y03099188D01*
X00089251Y03039586D02*
Y03099188D01*
X00104152Y03114089D01*
X00133953D01*
X00148854Y03099188D01*
Y03039586D01*
X00133953Y03024685D01*
X00104152D01*
X00089251Y03039586D01*
X00189251Y03114089D02*
Y03024685D01*
X00248854D01*
X00433953D02*
X00404152Y03054486D01*
Y03084288D01*
X00433953Y03114089D01*
X00504152D02*
X00548854D01*
X00504152D02*
X00489251Y03099188D01*
Y03039586D01*
X00504152Y03024685D01*
X00548854D01*
Y03069387D01*
X00533953D01*
X00589251Y03114089D02*
X00633953D01*
X00648854Y03099188D01*
Y03084288D01*
X00633953Y03069387D01*
X00648854Y03054486D01*
Y03039586D01*
X00633953Y03024685D01*
X00589251D01*
X00604152D02*
Y03114089D01*
Y03069387D02*
X00633953D01*
X00689251Y03114089D02*
Y03024685D01*
X00748854D01*
X00804152D02*
X00833953Y03054486D01*
Y03084288D01*
X00804152Y03114089D01*
G36*
X0007824Y00289591D02*
Y00472941D01*
X0011861D01*
Y00289591D01*
X0007824D01*
G37*
G36*
Y00683291D02*
Y00866641D01*
X0011861D01*
Y00683291D01*
X0007824D01*
G37*
G36*
Y01076992D02*
Y01260342D01*
X0011861D01*
Y01076992D01*
X0007824D01*
G37*
G36*
Y01470693D02*
Y01654043D01*
X0011861D01*
Y01470693D01*
X0007824D01*
G37*
G36*
Y01864394D02*
Y02047744D01*
X0011861D01*
Y01864394D01*
X0007824D01*
G37*
G36*
X0015698Y00289591D02*
Y00472941D01*
X0019735D01*
Y00289591D01*
X0015698D01*
G37*
G36*
Y00683291D02*
Y00866641D01*
X0019735D01*
Y00683291D01*
X0015698D01*
G37*
G36*
Y01076992D02*
Y01260342D01*
X0019735D01*
Y01076992D01*
X0015698D01*
G37*
G36*
Y01470693D02*
Y01654043D01*
X0019735D01*
Y01470693D01*
X0015698D01*
G37*
G36*
Y01864394D02*
Y02047744D01*
X0019735D01*
Y01864394D01*
X0015698D01*
G37*
G36*
X00235721Y00289591D02*
Y00472941D01*
X0027609D01*
Y00289591D01*
X00235721D01*
G37*
G36*
Y00683291D02*
Y00866641D01*
X0027609D01*
Y00683291D01*
X00235721D01*
G37*
G36*
Y01076992D02*
Y01260342D01*
X0027609D01*
Y01076992D01*
X00235721D01*
G37*
G36*
Y01470693D02*
Y01654043D01*
X0027609D01*
Y01470693D01*
X00235721D01*
G37*
G36*
Y01864394D02*
Y02047744D01*
X0027609D01*
Y01864394D01*
X00235721D01*
G37*
G36*
X00312492Y00289591D02*
Y00472941D01*
X00352862D01*
Y00289591D01*
X00312492D01*
G37*
G36*
Y00683291D02*
Y00866641D01*
X00352862D01*
Y00683291D01*
X00312492D01*
G37*
G36*
Y01076992D02*
Y01260342D01*
X00352862D01*
Y01076992D01*
X00312492D01*
G37*
G36*
Y01470693D02*
Y01654043D01*
X00352862D01*
Y01470693D01*
X00312492D01*
G37*
G36*
Y01864394D02*
Y02047744D01*
X00352862D01*
Y01864394D01*
X00312492D01*
G37*
G36*
X00590051Y00289591D02*
Y00472941D01*
X00630421D01*
Y00289591D01*
X00590051D01*
G37*
G36*
Y00683291D02*
Y00866641D01*
X00630421D01*
Y00683291D01*
X00590051D01*
G37*
G36*
Y01076992D02*
Y01260342D01*
X00630421D01*
Y01076992D01*
X00590051D01*
G37*
G36*
Y01470693D02*
Y01654043D01*
X00630421D01*
Y01470693D01*
X00590051D01*
G37*
G36*
Y01864394D02*
Y02047744D01*
X00630421D01*
Y01864394D01*
X00590051D01*
G37*
G36*
X00668791Y00289591D02*
Y00472941D01*
X00709161D01*
Y00289591D01*
X00668791D01*
G37*
G36*
Y00683291D02*
Y00866641D01*
X00709161D01*
Y00683291D01*
X00668791D01*
G37*
G36*
Y01076992D02*
Y01260342D01*
X00709161D01*
Y01076992D01*
X00668791D01*
G37*
G36*
Y01470693D02*
Y01654043D01*
X00709161D01*
Y01470693D01*
X00668791D01*
G37*
G36*
Y01864394D02*
Y02047744D01*
X00709161D01*
Y01864394D01*
X00668791D01*
G37*
G36*
X00747532Y00289591D02*
Y00472941D01*
X00787901D01*
Y00289591D01*
X00747532D01*
G37*
G36*
Y00683291D02*
Y00866641D01*
X00787901D01*
Y00683291D01*
X00747532D01*
G37*
G36*
Y01076992D02*
Y01260342D01*
X00787901D01*
Y01076992D01*
X00747532D01*
G37*
G36*
Y01470693D02*
Y01654043D01*
X00787901D01*
Y01470693D01*
X00747532D01*
G37*
G36*
Y01864394D02*
Y02047744D01*
X00787901D01*
Y01864394D01*
X00747532D01*
G37*
G36*
X00824303Y00289591D02*
Y00472941D01*
X00864673D01*
Y00289591D01*
X00824303D01*
G37*
G36*
Y00683291D02*
Y00866641D01*
X00864673D01*
Y00683291D01*
X00824303D01*
G37*
G36*
Y01076992D02*
Y01260342D01*
X00864673D01*
Y01076992D01*
X00824303D01*
G37*
G36*
Y01470693D02*
Y01654043D01*
X00864673D01*
Y01470693D01*
X00824303D01*
G37*
G36*
Y01864394D02*
Y02047744D01*
X00864673D01*
Y01864394D01*
X00824303D01*
G37*
G36*
X01101862Y00289591D02*
Y00472941D01*
X01142232D01*
Y00289591D01*
X01101862D01*
G37*
G36*
Y00683291D02*
Y00866641D01*
X01142232D01*
Y00683291D01*
X01101862D01*
G37*
G36*
Y01076992D02*
Y01260342D01*
X01142232D01*
Y01076992D01*
X01101862D01*
G37*
G36*
Y01470693D02*
Y01654043D01*
X01142232D01*
Y01470693D01*
X01101862D01*
G37*
G36*
Y01864394D02*
Y02047744D01*
X01142232D01*
Y01864394D01*
X01101862D01*
G37*
G36*
X01180602Y00289591D02*
Y00472941D01*
X01220972D01*
Y00289591D01*
X01180602D01*
G37*
G36*
Y00683291D02*
Y00866641D01*
X01220972D01*
Y00683291D01*
X01180602D01*
G37*
G36*
Y01076992D02*
Y01260342D01*
X01220972D01*
Y01076992D01*
X01180602D01*
G37*
G36*
Y01470693D02*
Y01654043D01*
X01220972D01*
Y01470693D01*
X01180602D01*
G37*
G36*
Y01864394D02*
Y02047744D01*
X01220972D01*
Y01864394D01*
X01180602D01*
G37*
G36*
X01259343Y00289591D02*
Y00472941D01*
X01299713D01*
Y00289591D01*
X01259343D01*
G37*
G36*
Y00683291D02*
Y00866641D01*
X01299713D01*
Y00683291D01*
X01259343D01*
G37*
G36*
Y01076992D02*
Y01260342D01*
X01299713D01*
Y01076992D01*
X01259343D01*
G37*
G36*
Y01470693D02*
Y01654043D01*
X01299713D01*
Y01470693D01*
X01259343D01*
G37*
G36*
Y01864394D02*
Y02047744D01*
X01299713D01*
Y01864394D01*
X01259343D01*
G37*
G36*
X01336114Y00289591D02*
Y00472941D01*
X01376484D01*
Y00289591D01*
X01336114D01*
G37*
G36*
Y00683291D02*
Y00866641D01*
X01376484D01*
Y00683291D01*
X01336114D01*
G37*
G36*
Y01076992D02*
Y01260342D01*
X01376484D01*
Y01076992D01*
X01336114D01*
G37*
G36*
Y01470693D02*
Y01654043D01*
X01376484D01*
Y01470693D01*
X01336114D01*
G37*
G36*
Y01864394D02*
Y02047744D01*
X01376484D01*
Y01864394D01*
X01336114D01*
G37*
G36*
X01613673Y00289591D02*
Y00472941D01*
X01654043D01*
Y00289591D01*
X01613673D01*
G37*
G36*
Y00683291D02*
Y00866641D01*
X01654043D01*
Y00683291D01*
X01613673D01*
G37*
G36*
Y01076992D02*
Y01260342D01*
X01654043D01*
Y01076992D01*
X01613673D01*
G37*
G36*
Y01470693D02*
Y01654043D01*
X01654043D01*
Y01470693D01*
X01613673D01*
G37*
G36*
Y01864394D02*
Y02047744D01*
X01654043D01*
Y01864394D01*
X01613673D01*
G37*
G36*
X01692413Y00289591D02*
Y00472941D01*
X01732783D01*
Y00289591D01*
X01692413D01*
G37*
G36*
Y00683291D02*
Y00866641D01*
X01732783D01*
Y00683291D01*
X01692413D01*
G37*
G36*
Y01076992D02*
Y01260342D01*
X01732783D01*
Y01076992D01*
X01692413D01*
G37*
G36*
Y01470693D02*
Y01654043D01*
X01732783D01*
Y01470693D01*
X01692413D01*
G37*
G36*
Y01864394D02*
Y02047744D01*
X01732783D01*
Y01864394D01*
X01692413D01*
G37*
G36*
X01771154Y00289591D02*
Y00472941D01*
X01811524D01*
Y00289591D01*
X01771154D01*
G37*
G36*
Y00683291D02*
Y00866641D01*
X01811524D01*
Y00683291D01*
X01771154D01*
G37*
G36*
Y01076992D02*
Y01260342D01*
X01811524D01*
Y01076992D01*
X01771154D01*
G37*
G36*
Y01470693D02*
Y01654043D01*
X01811524D01*
Y01470693D01*
X01771154D01*
G37*
G36*
Y01864394D02*
Y02047744D01*
X01811524D01*
Y01864394D01*
X01771154D01*
G37*
G36*
X01847925Y00289591D02*
Y00472941D01*
X01888295D01*
Y00289591D01*
X01847925D01*
G37*
G36*
Y00683291D02*
Y00866641D01*
X01888295D01*
Y00683291D01*
X01847925D01*
G37*
G36*
Y01076992D02*
Y01260342D01*
X01888295D01*
Y01076992D01*
X01847925D01*
G37*
G36*
Y01470693D02*
Y01654043D01*
X01888295D01*
Y01470693D01*
X01847925D01*
G37*
G36*
Y01864394D02*
Y02047744D01*
X01888295D01*
Y01864394D01*
X01847925D01*
G37*
M02*
