%TF.GenerationSoftware,KiCad,Pcbnew,9.0.0*%
%TF.CreationDate,2025-10-23T21:44:52-04:00*%
%TF.ProjectId,wslink,77736c69-6e6b-42e6-9b69-6361645f7063,rev?*%
%TF.SameCoordinates,Original*%
%TF.FileFunction,Copper,L2,Bot*%
%TF.FilePolarity,Positive*%
%FSLAX46Y46*%
G04 Gerber Fmt 4.6, Leading zero omitted, Abs format (unit mm)*
G04 Created by KiCad (PCBNEW 9.0.0) date 2025-10-23 21:44:52*
%MOMM*%
%LPD*%
G01*
G04 APERTURE LIST*
%TA.AperFunction,NonConductor*%
%ADD10C,0.000000*%
%TD*%
%TA.AperFunction,ViaPad*%
%ADD11C,1.500000*%
%TD*%
%TA.AperFunction,Conductor*%
%ADD12C,0.152400*%
%TD*%
G04 APERTURE END LIST*
D10*
%TA.AperFunction,NonConductor*%
G36*
X7950000Y0D02*
G01*
X6950000Y0D01*
X6950000Y5000000D01*
X7950000Y5000000D01*
X7950000Y0D01*
G37*
%TD.AperFunction*%
%TA.AperFunction,NonConductor*%
G36*
X6000000Y0D02*
G01*
X5000000Y0D01*
X5000000Y5000000D01*
X6000000Y5000000D01*
X6000000Y0D01*
G37*
%TD.AperFunction*%
%TA.AperFunction,NonConductor*%
G36*
X4000000Y0D02*
G01*
X3000000Y0D01*
X3000000Y5000000D01*
X4000000Y5000000D01*
X4000000Y0D01*
G37*
%TD.AperFunction*%
%TA.AperFunction,NonConductor*%
G36*
X2000000Y0D02*
G01*
X1000000Y0D01*
X1000000Y5000000D01*
X2000000Y5000000D01*
X2000000Y0D01*
G37*
%TD.AperFunction*%
D11*
%TO.N,*%
X4450000Y6700000D03*
X3500000Y8700000D03*
X350000Y6700000D03*
X7500000Y8650000D03*
X6550000Y6750000D03*
X5500000Y8700000D03*
X2400000Y6700000D03*
X1500000Y8700000D03*
%TD*%
D12*
%TO.N,*%
X5550000Y8700000D02*
X5550000Y4750000D01*
X3400000Y4700000D02*
X3550000Y4550000D01*
X7550000Y8750000D02*
X7550000Y4800000D01*
X5550000Y8700000D02*
X5500000Y8750000D01*
X3400000Y4700000D02*
X3400000Y8700000D01*
X1400000Y8750000D02*
X1400000Y4400000D01*
X1400000Y8750000D02*
X1350000Y8800000D01*
%TD*%
M02*
